<svg version="1.0" xmlns="http://www.w3.org/2000/svg" xmlns:xlink="http://www.w3.org/1999/xlink" width="2400" height="1800">
  <rect x="0" y="0" width="100%" height="100%" fill="rgba(255,255,255,0)" fill-opacity="1"/>
  <svg version="1.0" xmlns="http://www.w3.org/2000/svg" xmlns:xlink="http://www.w3.org/1999/xlink" x="0" y="0" width="2400" height="1800" viewBox="70 51.5 200 147" preserveAspectRatio="xMidYMid meet" color-interpolation-filters="sRGB">
    <defs>
      <linearGradient id="92" x1="0%" y1="0%" x2="100%" y2="0%">
        <stop offset="0%" stop-color="#fa71cd"/>
        <stop offset="100%" stop-color="#9b59b6"/>
      </linearGradient>
      <linearGradient id="93" x1="0%" y1="0%" x2="100%" y2="0%">
        <stop offset="0%" stop-color="#f9d423"/>
        <stop offset="100%" stop-color="#f83600"/>
      </linearGradient>
      <linearGradient id="94" x1="0%" y1="0%" x2="100%" y2="0%">
        <stop offset="0%" stop-color="#0064d2"/>
        <stop offset="100%" stop-color="#1cb0f6"/>
      </linearGradient>
      <linearGradient id="95" x1="0%" y1="0%" x2="100%" y2="0%">
        <stop offset="0%" stop-color="#f00978"/>
        <stop offset="100%" stop-color="#3f51b1"/>
      </linearGradient>
      <linearGradient id="96" x1="0%" y1="0%" x2="100%" y2="0%">
        <stop offset="0%" stop-color="#7873f5"/>
        <stop offset="100%" stop-color="#ec77ab"/>
      </linearGradient>
      <linearGradient id="97" x1="0%" y1="0%" x2="100%" y2="0%">
        <stop offset="0%" stop-color="#f9d423"/>
        <stop offset="100%" stop-color="#e14fad"/>
      </linearGradient>
      <linearGradient id="98" x1="0%" y1="0%" x2="100%" y2="0%">
        <stop offset="0%" stop-color="#009efd"/>
        <stop offset="100%" stop-color="#2af598"/>
      </linearGradient>
      <linearGradient id="99" x1="0%" y1="0%" x2="100%" y2="0%">
        <stop offset="0%" stop-color="#ffcc00"/>
        <stop offset="100%" stop-color="#00b140"/>
      </linearGradient>
      <linearGradient id="100" x1="0%" y1="0%" x2="100%" y2="0%">
        <stop offset="0%" stop-color="#d51007"/>
        <stop offset="100%" stop-color="#ff8177"/>
      </linearGradient>
      <linearGradient id="102" x1="0%" y1="0%" x2="100%" y2="0%">
        <stop offset="0%" stop-color="#a2b6df"/>
        <stop offset="100%" stop-color="#0c3483"/>
      </linearGradient>
      <linearGradient id="103" x1="0%" y1="0%" x2="100%" y2="0%">
        <stop offset="0%" stop-color="#7ac5d8"/>
        <stop offset="100%" stop-color="#eea2a2"/>
      </linearGradient>
      <linearGradient id="104" x1="0%" y1="0%" x2="100%" y2="0%">
        <stop offset="0%" stop-color="#00ecbc"/>
        <stop offset="100%" stop-color="#007adf"/>
      </linearGradient>
      <linearGradient id="105" x1="0%" y1="0%" x2="100%" y2="0%">
        <stop offset="0%" stop-color="#b88746"/>
        <stop offset="100%" stop-color="#fdf5a6"/>
      </linearGradient>
    </defs>
    <g fill="#333" class="icon-text-wrapper icon-svg-group iconsvg" transform="translate(87.59979248046875,69.99354934692383)">
      <g class="iconsvg-imagesvg" transform="translate(52.40020751953125,0)">
        <g>
          <rect fill="#333" fill-opacity="0" stroke-width="2" x="0" y="0" width="60" height="81.79290037624735" class="image-rect"/>
          <svg x="0" y="0" width="60" height="81.79290037624735" filtersec="colorsb3103278146" class="image-svg-svg primary" style="overflow: visible;">
            <svg xmlns="http://www.w3.org/2000/svg" viewBox="0.0015106201171875 0 83.56697082519531 113.91999816894531">
              <g fill-rule="evenodd">
                <path d="M62.42 32l-5.69-5.69L32.78 50.3c-16.3 16.3-7.26 36 6.52 49.73l5.7 5.69 23.94-23.94C85.24 65.47 76.2 45.83 62.42 32zM28.68 46.2l28.05-28.05 9.79 9.79c16 16 25.53 38.92 6.52 57.94L45 113.92l-9.79-9.79c-16.01-16-25.54-38.92-6.53-57.93z" fill="#0b75d2"/>
                <path d="M53.34 23l-5.69-5.68-23.94 23.9C7.4 57.52 16.44 77.17 30.23 91l5.69 5.69 23.94-24C76.17 56.4 67.13 36.75 53.34 23zM19.61 37.12l28-28 9.79 9.78C73.45 34.87 83 57.79 64 76.8l-28 28.05-9.79-9.79C10.12 79.05.59 56.14 19.61 37.12z" fill="#00a9ff"/>
                <path d="M44.27 13.89L38.58 8.2l-23.95 24c-16.3 16.3-7.26 35.95 6.52 49.73l5.69 5.69 24-23.94c16.3-16.31 7.26-35.95-6.52-49.74zM10.53 28.05L38.58 0l9.79 9.79c16 16 25.53 38.92 6.52 57.94l-28 28L17.05 86c-16-16-25.53-38.94-6.52-57.95z" fill="#52cdff"/>
              </g>
            </svg>
          </svg>
        </g>
      </g>
      <g transform="translate(0,88.79290008544922)">
        <g fill-rule="" class="tp-name iconsvg-namesvg">
          <g transform="scale(1)">
            <g>
              <path d="M11.56-12.15C10.14-14.27 8.35-14.6 6.29-14.6 3.93-14.6 0.76-13.65 0.82-10.61 0.82-7.96 3.52-7.42 6.15-6.91 8.51-6.46 10.9-5.98 10.88-3.82 10.88-1.27 8.06-0.78 6.29-0.78 4.52-0.78 2.26-1.64 1.38-3.39L0.39-2.9C1.5-0.7 4.05 0.23 6.29 0.23 8.7 0.23 11.97-0.56 11.99-3.8 11.99-6.91 9.11-7.4 6.33-7.94 3.91-8.39 1.93-8.82 1.93-10.65 1.93-12.95 4.61-13.57 6.29-13.57 7.92-13.55 9.6-13.3 10.65-11.62ZM26.9 0L27.98 0 27.98-14.39 26.63-14.39 21.18-6 15.67-14.39C15.13-14.39 14.89-14.39 14.35-14.39L14.35 0 15.46 0 15.46-12.79 21.01-4.36 21.38-4.36 26.9-12.79ZM37.46-13.37C42.25-13.37 42.25-5.98 37.46-5.98L32.26-5.98 32.26-13.37ZM37.46-4.98C43.71-4.98 43.71-14.39 37.46-14.39 35.37-14.39 33.25-14.39 31.15-14.39L31.15 0 32.26 0 32.26-4.98Z" transform="translate(-0.38999998569488525, 14.600000381469727)"/>
            </g>
            <g fill="#333" transform="translate(44.75749969482422,0)">
              <g transform="scale(1)">
                <path d="M5.41 0L6.52 0 6.52-13.39 11.72-13.39 11.72-14.37 0.21-14.37 0.21-13.39 5.41-13.39ZM15.44 0.14C17.07 0.14 18.83-0.51 19.82-1.81L19.1-2.39C18.34-1.38 16.78-0.84 15.44-0.84 13.34-0.84 11.51-2.22 11.31-4.61L20.46-4.61C20.85-8.57 18.3-10.32 15.44-10.32 12.58-10.32 10.28-8.12 10.28-5.08 10.28-1.85 12.58 0.14 15.44 0.14ZM11.31-5.49C11.54-7.98 13.34-9.4 15.44-9.4 17.89-9.4 19.53-8 19.55-5.49ZM30.72-2.1C29.9-1.27 28.79-0.84 27.7-0.84 25.39-0.84 23.46-2.34 23.46-5.08 23.46-7.81 25.39-9.31 27.7-9.31 28.79-9.31 29.92-8.92 30.74-8.1L31.4-8.74C30.37-9.75 29.03-10.26 27.7-10.26 24.76-10.26 22.47-8.29 22.47-5.08 22.47-1.87 24.84 0.1 27.7 0.1 29.03 0.1 30.37-0.39 31.4-1.42ZM33.45-14.39L33.45 0 34.46 0 34.46-5.57C34.46-7.69 35.94-9.34 38.08-9.34 40.36-9.34 41.35-7.92 41.35-5.82L41.35 0 42.34 0 42.34-5.82C42.34-8.47 40.92-10.3 38.08-10.3 36.66-10.28 35.24-9.73 34.42-8.27L34.42-14.39ZM44.97-10.16L44.97 0 45.98 0 45.98-5.65C45.98-7.75 47.44-9.34 49.53-9.36 51.73-9.38 53.15-8.14 53.15-5.84L53.15 0 54.16 0 54.16-5.86C54.16-8.68 52.29-10.34 49.58-10.34 48.16-10.32 46.74-9.75 45.96-8.35L45.96-10.16ZM61.48 0.14C64.34 0.14 66.64-1.83 66.64-5.06 66.64-8.29 64.34-10.34 61.48-10.34 58.62-10.34 56.32-8.29 56.32-5.06 56.32-1.83 58.62 0.14 61.48 0.14ZM61.48-0.84C59.18-0.84 57.31-2.43 57.31-5.06 57.31-7.69 59.18-9.4 61.48-9.4 63.78-9.4 65.65-7.69 65.65-5.06 65.65-2.43 63.78-0.84 61.48-0.84ZM68.97-14.39L68.97 0 69.97 0 69.97-14.39ZM77.48 0.14C80.34 0.14 82.64-1.83 82.64-5.06 82.64-8.29 80.34-10.34 77.48-10.34 74.62-10.34 72.32-8.29 72.32-5.06 72.32-1.83 74.62 0.14 77.48 0.14ZM77.48-0.84C75.17-0.84 73.3-2.43 73.3-5.06 73.3-7.69 75.17-9.4 77.48-9.4 79.78-9.4 81.65-7.69 81.65-5.06 81.65-2.43 79.78-0.84 77.48-0.84ZM92.14-9.42C91.36-9.97 90.29-10.34 89.26-10.34 86.63-10.34 84.49-8.55 84.49-5.39 84.49-2.67 86.32-0.47 89.26-0.47 91.15-0.47 93.1 0.39 93.1 2.57 93.1 4.73 91.3 5.63 89.26 5.63 87.22 5.63 85.46 4.65 85.46 2.57L84.45 2.57C84.45 5.14 86.57 6.62 89.26 6.62 91.95 6.62 94.09 5.31 94.09 2.57 94.09 0.82 93.1-0.43 91.32-1.07 93-1.83 94.05-3.62 94.05-5.39 94.05-7.03 93.52-8.06 92.8-8.84L93.78-9.99 93.13-10.57ZM89.26-9.34C91.36-9.34 93.06-7.96 93.06-5.39 93.06-3.29 91.36-1.48 89.26-1.48 86.94-1.48 85.5-3.29 85.5-5.39 85.5-8.04 87.18-9.34 89.26-9.34ZM97.14-10.2L97.14 0 96.13 0 96.13-10.2ZM95.84-13.47C95.84-12.4 97.46-12.4 97.46-13.47 97.46-14.54 95.84-14.54 95.84-13.47ZM104.6 0.14C106.22 0.14 107.99-0.51 108.98-1.81L108.26-2.39C107.5-1.38 105.94-0.84 104.6-0.84 102.5-0.84 100.67-2.22 100.47-4.61L109.62-4.61C110.01-8.57 107.46-10.32 104.6-10.32 101.74-10.32 99.44-8.12 99.44-5.08 99.44-1.85 101.74 0.14 104.6 0.14ZM100.47-5.49C100.69-7.98 102.5-9.4 104.6-9.4 107.05-9.4 108.69-8 108.71-5.49ZM119.81-8.97C118.81-9.91 117.51-10.32 116.03-10.32 113.98-10.34 111.98-9.48 112-7.48 112.02-5.45 113.98-5.08 115.95-4.75 117.61-4.48 119.3-4.19 119.26-2.73 119.2-1.13 117.33-0.8 116.09-0.8 114.74-0.8 113.21-1.32 112.37-2.53L111.63-1.87C112.52-0.51 114.28 0.16 116.07 0.16 117.86 0.16 120.19-0.43 120.25-2.67 120.35-5.04 117.86-5.35 116.05-5.65 114.78-5.88 113.01-6.15 112.97-7.51 112.93-8.8 114.45-9.4 116.03-9.38 117.16-9.38 118.17-9.21 119.2-8.31Z" transform="translate(-0.20999999344348907, 14.600000381469727)"/>
              </g>
            </g>
          </g>
        </g>
      </g>
    </g>
    <defs v-gra="od"/>
  </svg>
</svg>
